# xmcd
#
# Track frame offsets:
#	150
#	23604
#	39835
#	55543
#	75555
#	122260
#	144342
#	153746
#	167400
#	186959
#	213005
#	234181
#	275572
#	295727
#
# Disc length: 4290 seconds
#
# Revision: 0
# Processed by: cddbd v1.4PL0 Copyright (c) Steve Scherf et al.
# Submitted via: EasyCDDAExtractor 4.6.9.1
#
DISCID=a610c00e
DTITLE=Ryan Adams  - Live at the TLA inPhiladelphia PA 10.06.2001 [CD1]
DYEAR=1900
DGENRE=
TTITLE0=Candy Doll
TTITLE1=Firecracker
TTITLE2=Answering Bell
TTITLE3=Somehow Someway
TTITLE4=Nobody Girl
TTITLE5=Touch, Feel and Lose
TTITLE6=Nervous Breakdown
TTITLE7=To Be Young (Is To Be Sad, Is To Be High)
TTITLE8=The Rescue Blues
TTITLE9=Oh My Sweet Carolina
TTITLE10=Lovesick Blues
TTITLE11=Desire
TTITLE12=Rocket Man
TTITLE13=When The Stars Go Blue
EXTD=
EXTT0=
EXTT1=
EXTT2=
EXTT3=
EXTT4=
EXTT5=
EXTT6=
EXTT7=
EXTT8=
EXTT9=
EXTT10=
EXTT11=
EXTT12=
EXTT13=
PLAYORDER=
